<svg width="130" height="130" viewBox="0 0 130 130" fill="none" xmlns="http://www.w3.org/2000/svg">
<path d="M54.4762 95.0238C60.4345 95.0238 65.3095 90.1488 65.3095 84.1905C65.3095 78.2321 60.4345 73.3571 54.4762 73.3571C48.5178 73.3571 43.6428 78.2321 43.6428 84.1905C43.6428 90.1488 48.5178 95.0238 54.4762 95.0238ZM86.9762 46.2738C92.9345 46.2738 97.8095 51.1488 97.8095 57.1071V111.274C97.8095 117.232 92.9345 122.107 86.9762 122.107H21.9762C16.0178 122.107 11.1428 117.232 11.1428 111.274V57.1071C11.1428 51.1488 16.0178 46.2738 21.9762 46.2738H27.3928V35.4405C27.3928 20.2738 39.3095 8.35714 54.4762 8.35714C69.6428 8.35714 81.5595 20.2738 81.5595 35.4405V46.2738H86.9762ZM54.4762 19.1905C45.2678 19.1905 38.2262 26.2321 38.2262 35.4405V46.2738H70.7262V35.4405C70.7262 26.2321 63.6845 19.1905 54.4762 19.1905ZM119.476 73.3571H108.643V40.8571H119.476V73.3571ZM119.476 95.0238H108.643V84.1905H119.476V95.0238Z" fill="#B41919"/>
</svg>
