<svg width="130" height="130" viewBox="0 0 130 130" fill="none" xmlns="http://www.w3.org/2000/svg">
<path d="M64.9999 3.46667L44.5791 16.25H27.0833V27.0833L16.0874 34.0708C12.9458 35.9667 10.8333 39.3792 10.8333 43.3333V97.5C10.8333 100.373 11.9746 103.129 14.0063 105.16C16.0379 107.192 18.7934 108.333 21.6666 108.333H108.333C114.346 108.333 119.167 103.513 119.167 97.5V43.3333C119.167 39.3792 117.054 35.9667 113.912 34.0708L102.917 27.0833V16.25H85.4208M37.9166 27.0833H92.0833V53.5167L64.9999 70.4167L37.9166 53.5167M43.3333 32.5V40.625H86.6666V32.5M27.0833 39.975V46.7458L21.6666 43.3333M102.917 39.975L108.333 43.3333L102.917 46.7458M43.3333 46.0417V54.1667H86.6666V46.0417H43.3333Z" fill="#B41919"/>
</svg>
