<svg width="130" height="130" viewBox="0 0 130 130" fill="none" xmlns="http://www.w3.org/2000/svg">
<path d="M32.8097 32.8095V42.2887H24.0077C20.5958 42.2887 17.3236 43.6441 14.911 46.0566C12.4984 48.4692 11.1431 51.7414 11.1431 55.1533V105.257C11.1431 108.669 12.4984 111.941 14.911 114.354C17.3236 116.767 20.5958 118.122 24.0077 118.122H84.9452C85.4597 118.122 85.9635 118.092 86.4618 118.033C85.2533 117.144 84.0892 116.197 82.9735 115.194C77.1451 109.948 70.7264 101.32 70.7264 89.0074V74.3554C70.7256 72.4508 71.4544 70.6182 72.7631 69.2344C74.0718 67.8507 75.861 67.0208 77.7626 66.9156H77.7924C78.1034 66.8952 78.414 66.8699 78.7241 66.8397C79.3795 66.7829 80.2922 66.6881 81.3079 66.5418C83.5504 66.2222 85.5166 65.7645 86.5431 65.2987C87.2933 64.9602 88.6691 64.0014 90.2156 62.7176C90.9686 62.0896 91.7029 61.4393 92.4174 60.7677L92.5339 60.6593L92.5529 60.6404C93.9591 59.2734 95.8487 58.5179 97.8097 58.5387V55.1533C97.8097 51.7414 96.4544 48.4692 94.0418 46.0566C91.6292 43.6441 88.3571 42.2887 84.9452 42.2887H76.1431V32.8095C76.1431 27.0632 73.8603 21.5522 69.7971 17.4889C65.7338 13.4256 60.2228 11.1429 54.4764 11.1429C48.73 11.1429 43.219 13.4256 39.1558 17.4889C35.0925 21.5522 32.8097 27.0632 32.8097 32.8095ZM54.4764 17.9137C58.427 17.9137 62.2158 19.4831 65.0093 22.2766C67.8029 25.0701 69.3722 28.8589 69.3722 32.8095V42.2887H39.5806V32.8095C39.5806 28.8589 41.1499 25.0701 43.9435 22.2766C46.737 19.4831 50.5258 17.9137 54.4764 17.9137ZM62.6014 80.2054C62.6014 82.3602 61.7454 84.4269 60.2216 85.9506C58.6979 87.4743 56.6313 88.3304 54.4764 88.3304C52.3215 88.3304 50.2549 87.4743 48.7312 85.9506C47.2074 84.4269 46.3514 82.3602 46.3514 80.2054C46.3514 78.0505 47.2074 75.9838 48.7312 74.4601C50.2549 72.9364 52.3215 72.0804 54.4764 72.0804C56.6313 72.0804 58.6979 72.9364 60.2216 74.4601C61.7454 75.9838 62.6014 78.0505 62.6014 80.2054ZM76.1431 74.1387V89.6845C76.1431 107.243 93.2435 116.221 97.0568 118.003C97.2907 118.114 97.5465 118.172 97.8057 118.172C98.0648 118.172 98.3207 118.114 98.5545 118.003C102.371 116.232 119.476 107.316 119.476 90.2614V74.1387C119.47 73.5919 119.252 73.0688 118.868 72.6794C118.485 72.29 117.965 72.0646 117.418 72.0506C114.813 71.9612 110.303 71.6335 107.286 70.4554C104.48 69.3612 101.238 66.4741 99.3643 64.646C98.9458 64.2446 98.3883 64.0205 97.8084 64.0205C97.2285 64.0205 96.671 64.2446 96.2524 64.646C94.3783 66.4741 91.1337 69.3585 88.3306 70.4554C85.3162 71.6335 80.8068 71.9612 78.2014 72.0506C77.6548 72.0646 77.1348 72.29 76.751 72.6794C76.3671 73.0688 76.1492 73.5919 76.1431 74.1387Z" fill="#B41919"/>
</svg>
