<svg width="321" height="58" viewBox="0 0 321 58" fill="none" xmlns="http://www.w3.org/2000/svg">
<path d="M104.205 7.9455H88.4337V48.7413H80.8823V7.9455H65.0444V1.33538H104.205V7.9455Z" fill="#272728"/>
<path d="M109.632 48.7413V13.8212H116.983V48.7413H109.632ZM109.632 8.07903V0H116.983V8.07903H109.632Z" fill="#272728"/>
<path d="M179.278 48.7413H171.927V29.178C171.927 25.9286 171.392 23.5472 170.323 22.0337C169.254 20.5203 167.694 19.7636 165.645 19.7636C163.596 19.7636 161.68 20.5426 159.898 22.1005C158.16 23.6139 156.935 25.5947 156.222 28.0429V48.7413H148.871V29.178C148.871 25.9286 148.337 23.5472 147.268 22.0337C146.198 20.5203 144.661 19.7636 142.657 19.7636C140.607 19.7636 138.692 20.5203 136.91 22.0337C135.172 23.5472 133.925 25.528 133.167 27.9762V48.7413H125.816V13.8212H132.499V20.8319C133.88 18.3837 135.684 16.5142 137.912 15.2233C140.184 13.8879 142.768 13.2202 145.664 13.2202C148.56 13.2202 150.832 13.9769 152.48 15.4904C154.173 17.0038 155.22 18.8956 155.621 21.1657C157.136 18.584 158.985 16.6254 161.168 15.2901C163.395 13.9102 165.935 13.2202 168.786 13.2202C170.835 13.2202 172.55 13.5986 173.931 14.3553C175.313 15.112 176.382 16.1581 177.139 17.4934C177.896 18.7843 178.431 20.2977 178.743 22.0337C179.099 23.7252 179.278 25.528 179.278 27.442V48.7413Z" fill="#272728"/>
<path d="M203.586 49.409C200.869 49.409 198.396 48.9416 196.168 48.0068C193.985 47.0275 192.092 45.7144 190.488 44.0675C188.884 42.376 187.637 40.4619 186.746 38.3253C185.899 36.1442 185.476 33.8296 185.476 31.3814C185.476 28.0874 186.234 25.0828 187.748 22.3676C189.263 19.6078 191.379 17.4044 194.097 15.7575C196.814 14.066 200 13.2202 203.653 13.2202C207.306 13.2202 210.447 14.066 213.076 15.7575C215.749 17.4044 217.82 19.5855 219.29 22.3008C220.761 25.0161 221.496 27.9316 221.496 31.0475C221.496 31.5817 221.473 32.0936 221.429 32.5832C221.384 33.0283 221.34 33.4067 221.295 33.7183H193.295C193.429 35.7659 193.985 37.5686 194.966 39.1266C195.99 40.64 197.282 41.8418 198.842 42.7321C200.401 43.5778 202.071 44.0007 203.854 44.0007C205.814 44.0007 207.663 43.511 209.4 42.5318C211.182 41.5525 212.385 40.2616 213.009 38.6592L219.29 40.4619C218.533 42.1534 217.375 43.6891 215.815 45.069C214.301 46.4044 212.496 47.4727 210.403 48.2739C208.309 49.0306 206.037 49.409 203.586 49.409ZM193.094 28.8442H214.212C214.078 26.8411 213.499 25.0828 212.474 23.5694C211.494 22.0115 210.224 20.8096 208.665 19.9639C207.15 19.0736 205.457 18.6285 203.586 18.6285C201.76 18.6285 200.067 19.0736 198.507 19.9639C196.993 20.8096 195.745 22.0115 194.765 23.5694C193.785 25.0828 193.228 26.8411 193.094 28.8442Z" fill="#272728"/>
<path d="M2.56165 48.7412V1.33534H10.0462V48.7412H2.56165Z" fill="#B41919"/>
<path d="M28.2538 15.2233V48.7412H20.7693V1.33534H26.9173L53.7815 35.5878V1.40211H61.3329V48.7412H54.7839L28.2538 15.2233Z" fill="#B41919"/>
<path fill-rule="evenodd" clip-rule="evenodd" d="M224.007 6.92208L122.396 6.92207L122.396 0L224.007 8.8755e-06L224.007 6.92208Z" fill="#272728"/>
<path fill-rule="evenodd" clip-rule="evenodd" d="M224.007 57.684L2.30933 57.684L2.30933 50.7619L224.007 50.762L224.007 57.684Z" fill="#272728"/>
<path d="M235.338 38.9263V57.0874H232.331V33.3845H234.87L249.371 51.9129V33.4179H252.379V57.0874H249.639L235.338 38.9263Z" fill="#B50E0E"/>
<path d="M265 57.4213C263.686 57.4213 262.483 57.1876 261.392 56.7202C260.322 56.2306 259.387 55.574 258.585 54.7505C257.805 53.9048 257.193 52.9366 256.747 51.8461C256.324 50.7555 256.112 49.5982 256.112 48.3741C256.112 46.7271 256.491 45.2248 257.248 43.8672C258.006 42.5096 259.053 41.419 260.389 40.5955C261.748 39.772 263.296 39.3603 265.034 39.3603C266.793 39.3603 268.319 39.7832 269.611 40.6289C270.926 41.4524 271.939 42.543 272.652 43.9006C273.387 45.236 273.755 46.6826 273.755 48.2406C273.755 48.4631 273.743 48.6857 273.721 48.9083C273.721 49.1086 273.71 49.2644 273.688 49.3756H259.22C259.309 50.5107 259.621 51.5234 260.155 52.4136C260.712 53.2816 261.425 53.9716 262.294 54.4835C263.163 54.9731 264.098 55.2179 265.1 55.2179C266.17 55.2179 267.172 54.9508 268.108 54.4167C269.066 53.8825 269.723 53.1815 270.079 52.3135L272.618 53.0145C272.24 53.8603 271.672 54.617 270.914 55.2847C270.179 55.9524 269.299 56.4754 268.275 56.8538C267.272 57.2321 266.181 57.4213 265 57.4213ZM259.12 47.3392H271.015C270.926 46.2041 270.603 45.2026 270.046 44.3346C269.489 43.4666 268.776 42.7878 267.907 42.2981C267.038 41.8085 266.081 41.5637 265.034 41.5637C264.009 41.5637 263.062 41.8085 262.194 42.2981C261.325 42.7878 260.612 43.4666 260.055 44.3346C259.52 45.2026 259.209 46.2041 259.12 47.3392Z" fill="#B50E0E"/>
<path d="M298.418 39.6608H301.259L293.841 57.0874H291.268L287.893 48.8749L284.552 57.0874H281.979L274.561 39.6608H277.368L283.382 54.183L286.189 47.0387L283.249 39.6941H285.822L287.893 45.236L289.965 39.6941H292.538L289.631 47.0387L292.437 54.183L298.418 39.6608Z" fill="#B50E0E"/>
<path d="M309.565 57.4213C308.117 57.4213 306.758 57.1876 305.488 56.7202C304.219 56.2306 303.127 55.5072 302.214 54.5502L303.35 52.4804C304.352 53.4152 305.355 54.0828 306.357 54.4835C307.36 54.8841 308.384 55.0844 309.431 55.0844C310.634 55.0844 311.614 54.8618 312.372 54.4167C313.129 53.9493 313.508 53.2705 313.508 52.3802C313.508 51.7348 313.307 51.2563 312.906 50.9447C312.528 50.6331 311.982 50.3772 311.269 50.1769C310.556 49.9543 309.71 49.7095 308.73 49.4424C307.527 49.0863 306.513 48.7079 305.689 48.3073C304.865 47.9067 304.241 47.406 303.818 46.805C303.395 46.2041 303.183 45.4474 303.183 44.5349C303.183 43.4221 303.473 42.4873 304.052 41.7306C304.631 40.9516 305.422 40.3618 306.424 39.9612C307.449 39.5606 308.607 39.3603 309.899 39.3603C311.191 39.3603 312.36 39.5606 313.407 39.9612C314.454 40.3618 315.357 40.9516 316.114 41.7306L314.777 43.7671C314.087 43.0548 313.329 42.5318 312.505 42.198C311.681 41.8419 310.757 41.6638 309.732 41.6638C309.131 41.6638 308.54 41.7417 307.961 41.8975C307.382 42.0311 306.903 42.287 306.524 42.6654C306.146 43.0215 305.956 43.5334 305.956 44.201C305.956 44.7575 306.101 45.2026 306.391 45.5364C306.703 45.848 307.148 46.1151 307.727 46.3377C308.329 46.5602 309.053 46.805 309.899 47.0721C311.213 47.4505 312.349 47.8288 313.307 48.2072C314.287 48.5855 315.045 49.0752 315.579 49.6761C316.114 50.277 316.381 51.1116 316.381 52.1799C316.381 53.8269 315.757 55.1178 314.51 56.0525C313.263 56.965 311.614 57.4213 309.565 57.4213Z" fill="#B50E0E"/>
</svg>
