<svg width="25" height="25" viewBox="0 0 25 25" fill="none" xmlns="http://www.w3.org/2000/svg">
<g clip-path="url(#clip0_275_123)">
<path d="M5.78998 18.6446H23.9969C24.454 18.6446 24.8245 18.2741 24.8245 17.817V4.57562C24.8245 4.11855 24.454 3.74805 23.9969 3.74805H5.78998C5.3329 3.74805 4.9624 4.11855 4.9624 4.57562V17.817C4.9624 18.274 5.3329 18.6446 5.78998 18.6446Z" fill="#EFF2FA"/>
<path d="M15.7211 16.5757H14.0659C13.8374 16.5757 13.6521 16.3904 13.6521 16.1619V6.23083C13.6521 6.00231 13.8374 5.81702 14.0659 5.81702H15.7211C15.9496 5.81702 16.1349 6.00231 16.1349 6.23083V16.1619C16.1349 16.3904 15.9496 16.5757 15.7211 16.5757Z" fill="#FFD782"/>
<path d="M15.7211 16.5757H14.0659C13.8374 16.5757 13.6521 16.3904 13.6521 16.1619V12.0239C13.6521 11.7954 13.8374 11.6101 14.0659 11.6101H15.7211C15.9496 11.6101 16.1349 11.7954 16.1349 12.0239V16.1619C16.1349 16.3904 15.9496 16.5757 15.7211 16.5757Z" fill="#FFC36E"/>
<path d="M19.0314 16.5757H17.3762C17.1477 16.5757 16.9624 16.3904 16.9624 16.1619V12.0239C16.9624 11.7954 17.1477 11.6101 17.3762 11.6101H19.0314C19.2599 11.6101 19.4452 11.7954 19.4452 12.0239V16.1619C19.4451 16.3904 19.2599 16.5757 19.0314 16.5757Z" fill="#C3E678"/>
<path d="M19.0314 16.5757H17.3762C17.1477 16.5757 16.9624 16.3904 16.9624 16.1619V15.3343C16.9624 15.1058 17.1477 14.9205 17.3762 14.9205H19.0314C19.2599 14.9205 19.4452 15.1058 19.4452 15.3343V16.1619C19.4451 16.3904 19.2599 16.5757 19.0314 16.5757Z" fill="#A5D76E"/>
<path d="M9.10034 16.5757H7.44518C7.21667 16.5757 7.03137 16.3904 7.03137 16.1619V12.0239C7.03137 11.7954 7.21667 11.6101 7.44518 11.6101H9.10034C9.32886 11.6101 9.51415 11.7954 9.51415 12.0239V16.1619C9.51411 16.3904 9.32886 16.5757 9.10034 16.5757Z" fill="#B4E1FA"/>
<path d="M22.3417 16.5757H20.6865C20.458 16.5757 20.2727 16.3904 20.2727 16.1619V8.71362C20.2727 8.4851 20.458 8.2998 20.6865 8.2998H22.3417C22.5702 8.2998 22.7555 8.4851 22.7555 8.71362V16.1619C22.7555 16.3904 22.5702 16.5757 22.3417 16.5757Z" fill="#9BE6D2"/>
<path d="M22.3417 16.5757H20.6865C20.458 16.5757 20.2727 16.3904 20.2727 16.1619V13.6791C20.2727 13.4506 20.458 13.2653 20.6865 13.2653H22.3417C22.5702 13.2653 22.7555 13.4506 22.7555 13.6791V16.1619C22.7555 16.3904 22.5702 16.5757 22.3417 16.5757Z" fill="#78D2BE"/>
<path d="M12.4106 16.5757H10.7555C10.527 16.5757 10.3417 16.3904 10.3417 16.1619V10.3688C10.3417 10.1403 10.527 9.95496 10.7555 9.95496H12.4106C12.6392 9.95496 12.8245 10.1403 12.8245 10.3688V16.1619C12.8245 16.3904 12.6392 16.5757 12.4106 16.5757Z" fill="#FF6464"/>
<path d="M12.4106 16.5757H10.7555C10.527 16.5757 10.3417 16.3904 10.3417 16.1619V14.5067C10.3417 14.2782 10.527 14.0929 10.7555 14.0929H12.4106C12.6392 14.0929 12.8245 14.2782 12.8245 14.5067V16.1619C12.8245 16.3904 12.6392 16.5757 12.4106 16.5757Z" fill="#D2555A"/>
<path d="M9.10034 16.5757H7.44518C7.21667 16.5757 7.03137 16.3904 7.03137 16.1619V15.3343C7.03137 15.1058 7.21667 14.9205 7.44518 14.9205H9.10034C9.32886 14.9205 9.51415 15.1058 9.51415 15.3343V16.1619C9.51411 16.3904 9.32886 16.5757 9.10034 16.5757Z" fill="#A0D2F0"/>
<path d="M23.5831 16.9895H6.20385C5.97534 16.9895 5.79004 16.8042 5.79004 16.5757C5.79004 16.3472 5.97534 16.1619 6.20385 16.1619H23.5832C23.8117 16.1619 23.997 16.3472 23.997 16.5757C23.9969 16.8042 23.8116 16.9895 23.5831 16.9895Z" fill="#D7DEED"/>
<path d="M7.50889 17.4669V16.13H4.07117V17.4669L5.79003 18.9947L7.50889 17.4669Z" fill="#E6AF78"/>
<path d="M10.1665 18.0923L7.80331 17.5362C7.76763 17.5279 7.73478 17.5136 7.70412 17.4963L5.79002 18.6128L3.95056 17.4423C3.90293 17.4871 3.84387 17.5204 3.7767 17.5362L1.41349 18.0922C1.06835 18.1734 0.824463 18.4814 0.824463 18.8359V20.3316C0.824463 20.5426 0.995463 20.7136 1.20645 20.7136H10.3736C10.5845 20.7136 10.7555 20.5426 10.7555 20.3316V18.8359C10.7555 18.4814 10.5116 18.1734 10.1665 18.0923Z" fill="#B4E1FA"/>
<path d="M4.07117 16.13V17.5405C6.23646 18.3206 7.50884 16.3682 7.50884 16.3682V16.13H4.07117Z" fill="#D29B6E"/>
<path d="M3.30725 11.7374L3.4737 15.3988C3.48927 15.7409 3.65699 16.058 3.93088 16.2635L4.72053 16.8557C4.91891 17.0045 5.16013 17.0849 5.40805 17.0849H6.17197C6.41989 17.0849 6.66116 17.0044 6.85948 16.8557L7.64914 16.2635C7.92308 16.058 8.09075 15.7409 8.10631 15.3988L8.27272 11.7374H3.30725Z" fill="#F0C087"/>
<path d="M5.21703 12.5013C5.98095 12.5013 7.12686 12.3104 7.39864 11.7374H3.30725L3.47366 15.3988C3.48922 15.7409 3.65694 16.058 3.93083 16.2635L4.72049 16.8557C4.91886 17.0045 5.16008 17.0849 5.408 17.0849H5.78999C5.408 17.0849 4.64408 16.321 4.64408 15.366C4.64408 14.899 4.64408 13.6472 4.64408 13.0742C4.64408 12.8833 4.83505 12.5013 5.21703 12.5013Z" fill="#E6AF78"/>
<path d="M9.3534 19.4741L10.5909 18.3624C10.6946 18.4938 10.7555 18.659 10.7555 18.8359V20.3316C10.7555 20.5426 10.5845 20.7136 10.3735 20.7136H9.03662V20.1846C9.03657 19.9134 9.15179 19.6552 9.3534 19.4741Z" fill="#A0D2F0"/>
<path d="M2.22649 19.4741L0.988994 18.3624C0.885213 18.4938 0.824463 18.659 0.824463 18.8359V20.3316C0.824463 20.5426 0.995463 20.7136 1.20645 20.7136H2.54332V20.1846C2.54332 19.9134 2.4281 19.6552 2.22649 19.4741Z" fill="#A0D2F0"/>
<path d="M6.26744 20.7136H5.3125L5.43189 18.9948H6.14805L6.26744 20.7136Z" fill="#5B5D6E"/>
<path d="M6.26744 18.6128H5.3125V18.7231C5.3125 18.9787 5.51959 19.1857 5.77511 19.1857H5.80473C6.06025 19.1857 6.26734 18.9787 6.26734 18.7231V18.6128H6.26744Z" fill="#515262"/>
<path d="M4.04431 17.0417L5.78993 18.6128C5.78993 18.6128 5.30103 18.8596 4.69775 19.357C4.57329 19.4596 4.38504 19.4181 4.31829 19.2712L3.49817 17.4669L3.75762 17.0777C3.82222 16.9808 3.95773 16.9638 4.04431 17.0417Z" fill="#A0D2F0"/>
<path d="M7.53554 17.0417L5.78992 18.6128C5.78992 18.6128 6.27882 18.8596 6.8821 19.357C7.00656 19.4596 7.19481 19.4181 7.26156 19.2712L8.08168 17.4669L7.82223 17.0777C7.75768 16.9808 7.62212 16.9638 7.53554 17.0417Z" fill="#A0D2F0"/>
<path d="M6.94788 10.4723L7.12694 11.7376C7.94425 11.901 8.062 13.1836 8.07897 13.55C8.08206 13.6165 8.1033 13.6807 8.13934 13.7366L8.4512 14.2203C8.4512 14.2203 8.34442 13.4205 8.83319 12.8834C8.83309 12.8834 9.00091 9.70836 6.94788 10.4723Z" fill="#785550"/>
<path d="M8.64277 14.1385L8.4271 15.0012C8.40155 15.1033 8.30968 15.1751 8.2043 15.1751C8.08847 15.1751 7.99083 15.0889 7.97644 14.974L7.86615 14.0916C7.83666 13.8556 8.02065 13.6472 8.25844 13.6472H8.25924C8.5164 13.6473 8.70511 13.889 8.64277 14.1385Z" fill="#F0C087"/>
<path d="M3.49018 10.13L3.7727 10.3229C2.4955 11.2659 2.73423 12.8833 2.73423 12.8833C3.11621 13.2653 3.11621 14.2201 3.11621 14.2201L3.4982 13.8382C3.4982 13.8382 3.35078 12.7348 4.07115 12.3103C4.73959 11.9164 5.3245 12.1194 5.92126 12.1194C7.52073 12.1194 7.96834 11.5165 7.89076 10.7825C7.85064 10.4026 7.26986 9.61145 5.78996 9.63657C5.19268 9.64674 4.07106 9.82759 3.49018 10.13Z" fill="#694B4B"/>
<path d="M3.37881 11.9523C3.37881 11.9523 3.17589 11.1525 3.7727 10.323C2.4955 11.266 2.73423 12.8834 2.73423 12.8834C3.11621 13.2653 3.11621 14.2202 3.11621 14.2202L3.4982 13.8382C3.4982 13.8382 3.35078 12.7349 4.07115 12.3104C4.73959 11.9165 5.3245 12.1194 5.92126 12.1194C6.18137 12.1194 6.4081 12.102 6.60995 12.0721C5.37807 12.1135 4.65198 11.1804 3.37881 11.9523Z" fill="#5A4146"/>
<path d="M2.9373 14.1385L3.15297 15.0012C3.17851 15.1033 3.27039 15.1751 3.37576 15.1751C3.49159 15.1751 3.58923 15.0889 3.60362 14.974L3.71392 14.0916C3.7434 13.8556 3.55942 13.6472 3.32162 13.6472H3.32083C3.06362 13.6473 2.8749 13.889 2.9373 14.1385Z" fill="#E6AF78"/>
<path d="M8.08179 20.3317H7.12686C6.91592 20.3317 6.74487 20.5027 6.74487 20.7137H8.46373C8.46369 20.5027 8.29269 20.3317 8.08179 20.3317Z" fill="#A0D2F0"/>
</g>
<defs>
<clipPath id="clip0_275_123">
<rect width="24" height="24" fill="white" transform="translate(0.824463 0.230835)"/>
</clipPath>
</defs>
</svg>
