<svg width="25" height="25" viewBox="0 0 25 25" fill="none" xmlns="http://www.w3.org/2000/svg">
<g clip-path="url(#clip0_275_77)">
<path d="M12.7913 24.2307C19.4187 24.2307 24.7913 18.8582 24.7913 12.2308C24.7913 5.6034 19.4187 0.230835 12.7913 0.230835C6.16394 0.230835 0.791382 5.6034 0.791382 12.2308C0.791382 18.8582 6.16394 24.2307 12.7913 24.2307Z" fill="#FFD15D"/>
<path d="M18.705 22.674C22.3392 20.6116 24.7913 16.7078 24.7913 12.2308C24.7913 11.9841 24.7829 11.7395 24.7683 11.4966L21.6398 8.36813L20.3113 10.2368L15.3185 5.24402L10.9688 9.26775L8.172 11.7873L10.3571 13.9724L10.1246 14.0936L18.705 22.674Z" fill="#F9B54C"/>
<path d="M21.6398 8.36816H15.9025V17.5479H21.6398V8.36816Z" fill="white"/>
<path d="M13.9673 15.2092V13.905H11.6153V15.2092C11.6153 15.3132 11.531 15.3976 11.4269 15.3976H9.80615V19.8981H15.7766V15.3976H14.1559C14.0517 15.3976 13.9673 15.3132 13.9673 15.2092Z" fill="#FED8B2"/>
<path d="M15.7767 15.3976H14.1559C14.0518 15.3976 13.9675 15.3132 13.9675 15.2092V13.905H12.7106V19.8981H15.7766V15.3976H15.7767Z" fill="#EABE96"/>
<path d="M15.9328 15.3976H14.6814C14.6814 16.4968 13.8905 16.8368 12.7914 16.8368C12.7644 16.8368 12.7375 16.8364 12.7107 16.836V24.2294C12.7377 24.2295 12.7644 24.2307 12.7914 24.2307C14.924 24.2307 16.9262 23.6737 18.6618 22.6983V18.1265C18.6616 16.6194 17.4399 15.3976 15.9328 15.3976Z" fill="#324A5E"/>
<path d="M10.7011 15.3976H9.44966C7.9425 15.3976 6.7207 16.6194 6.7207 18.1265V22.5832C8.47996 23.6171 10.526 24.2149 12.7106 24.2294V16.836C11.6442 16.8195 10.7011 16.4698 10.7011 15.3976Z" fill="#3C5668"/>
<path d="M11.9832 21.5641H13.5994L15.3186 15.3976H14.6813C14.6813 16.4968 13.8904 16.8368 12.7913 16.8368C11.6922 16.8368 10.701 16.4967 10.701 15.3976H10.2642L11.9832 21.5641Z" fill="#B5F1F4"/>
<path d="M8.88183 12.1122C9.40094 12.1122 9.82176 11.6913 9.82176 11.1722C9.82176 10.6531 9.40094 10.2323 8.88183 10.2323C8.36272 10.2323 7.94189 10.6531 7.94189 11.1722C7.94189 11.6913 8.36272 12.1122 8.88183 12.1122Z" fill="#FED8B2"/>
<path d="M16.5005 12.1122C17.0196 12.1122 17.4404 11.6913 17.4404 11.1722C17.4404 10.6531 17.0196 10.2323 16.5005 10.2323C15.9814 10.2323 15.5605 10.6531 15.5605 11.1722C15.5605 11.6913 15.9814 12.1122 16.5005 12.1122Z" fill="#EABE96"/>
<path d="M12.7971 15.0867H12.5854C10.6262 15.0867 9.03796 13.4985 9.03796 11.5393V8.30044C9.03796 6.34126 10.6262 4.75305 12.5854 4.75305H12.7971C14.7563 4.75305 16.3445 6.34126 16.3445 8.30044V11.5393C16.3445 13.4985 14.7563 15.0867 12.7971 15.0867Z" fill="#F4E3C3"/>
<path d="M12.7971 4.75305H12.7106V15.0867H12.7971C14.7562 15.0867 16.3444 13.4984 16.3444 11.5393V8.3004C16.3444 6.34126 14.7562 4.75305 12.7971 4.75305Z" fill="#FED8B2"/>
<path d="M15.9598 5.952C15.2631 4.95961 14.1108 4.3103 12.8062 4.3103H12.5762C10.4491 4.3103 8.72473 6.03464 8.72473 8.16177V8.45961V11.1726H9.29014V9.58156C9.29004 9.58156 9.2899 9.58156 9.28981 9.58156C11.0057 9.40728 12.6928 9.07067 14.1716 8.33137C14.7037 8.94243 15.3182 9.48814 15.9966 9.93078V11.1725H16.6576V9.14436V8.16173C16.6576 7.33921 16.399 6.57759 15.9598 5.952Z" fill="#935635"/>
<path d="M15.9597 5.95188C15.263 4.95949 14.1108 4.31018 12.8061 4.31018H12.7106V8.91948C13.2146 8.7586 13.7035 8.56515 14.1715 8.3312C14.7036 8.94226 15.3181 9.48797 15.9965 9.93061V11.1724H16.6575V9.14419V8.16156C16.6576 7.33918 16.399 6.57756 15.9597 5.95188Z" fill="#804000"/>
<path d="M10.9692 11.1206C11.171 11.1206 11.3346 10.957 11.3346 10.7552C11.3346 10.5535 11.171 10.3899 10.9692 10.3899C10.7675 10.3899 10.6039 10.5535 10.6039 10.7552C10.6039 10.957 10.7675 11.1206 10.9692 11.1206Z" fill="#59595B"/>
<path d="M14.4132 11.1206C14.615 11.1206 14.7785 10.957 14.7785 10.7552C14.7785 10.5535 14.615 10.3899 14.4132 10.3899C14.2114 10.3899 14.0479 10.5535 14.0479 10.7552C14.0479 10.957 14.2114 11.1206 14.4132 11.1206Z" fill="#272525"/>
<path d="M12.6912 13.749C12.0329 13.749 11.4976 13.2136 11.4976 12.5554C11.4976 12.4438 11.588 12.3534 11.6996 12.3534C11.8112 12.3534 11.9016 12.4438 11.9016 12.5554C11.9016 12.9908 12.2559 13.345 12.6912 13.345C13.1265 13.345 13.4807 12.9907 13.4807 12.5554C13.4807 12.4438 13.5712 12.3534 13.6828 12.3534C13.7944 12.3534 13.8848 12.4438 13.8848 12.5554C13.8848 13.2136 13.3493 13.749 12.6912 13.749Z" fill="#FD8469"/>
<path d="M13.8848 12.5555C13.8848 12.4439 13.7944 12.3535 13.6828 12.3535C13.5712 12.3535 13.4808 12.4439 13.4808 12.5555C13.4808 12.9844 13.1369 13.3337 12.7106 13.3442V13.7482C13.3598 13.7377 13.8848 13.2072 13.8848 12.5555Z" fill="#FC6F58"/>
<path d="M13.1021 17.748H12.4807L11.9224 22.969C12.0239 23.049 12.0811 23.1712 12.0941 23.2989C12.1461 23.3536 12.1855 23.4277 12.2042 23.524C12.2589 23.8048 12.721 23.8031 12.9523 23.7626C13.26 23.7088 13.4783 23.4329 13.6865 23.2111L13.1021 17.748Z" fill="#F1543F"/>
<path d="M13.1021 17.748H12.7106V23.7818C12.8 23.7824 12.8857 23.7743 12.9521 23.7626C13.2599 23.7088 13.4782 23.4329 13.6863 23.2111L13.1021 17.748Z" fill="#C1321F"/>
<path d="M13.5994 16.756H11.9833L12.4791 17.8316H13.1036L13.5994 16.756Z" fill="#FC6F58"/>
<path d="M13.5995 16.756H12.7106V17.8316H13.1036L13.5995 16.756Z" fill="#F1543F"/>
<path d="M11.4581 15.3976L12.7914 16.7561L11.4581 18.0894L10.1248 15.3976H11.4581Z" fill="#2B9ED8"/>
<path d="M14.1247 15.3976L12.7914 16.7561L14.1247 18.0894L15.458 15.3976H14.1247Z" fill="#2B9ED8"/>
<path d="M12.7914 19.7864V24.2308C13.0193 24.2308 13.2456 24.223 13.4703 24.2091L15.4579 19.8088L14.4074 19.1578L15.4579 18.3048V15.3419H14.1247L12.7914 19.7864Z" fill="#2B3B4E"/>
<path d="M11.4581 15.3419H10.1248V18.3049L11.1753 19.1579L10.1248 19.8089L12.1124 24.2092C12.3372 24.2232 12.5635 24.2309 12.7913 24.2309V19.7864L11.4581 15.3419Z" fill="#324A5E"/>
<path d="M20.7914 10.7358H18.1248V11.0591H20.7914V10.7358Z" fill="#B8C9D9"/>
<path d="M20.7914 12.0691H18.1248V12.3923H20.7914V12.0691Z" fill="#B8C9D9"/>
<path d="M20.7914 13.4025H18.1248V13.7257H20.7914V13.4025Z" fill="#B8C9D9"/>
<path d="M20.7914 14.7358H18.1248V15.0591H20.7914V14.7358Z" fill="#B8C9D9"/>
</g>
<defs>
<clipPath id="clip0_275_77">
<rect width="24" height="24" fill="white" transform="translate(0.791382 0.230835)"/>
</clipPath>
</defs>
</svg>
