<svg width="25" height="25" viewBox="0 0 25 25" fill="none" xmlns="http://www.w3.org/2000/svg">
<path fill-rule="evenodd" clip-rule="evenodd" d="M3.58826 18.7018H5.58826V22.2018H3.58826V18.7018Z" fill="#FF5576"/>
<path fill-rule="evenodd" clip-rule="evenodd" d="M22.0824 2.70172C22.0824 2.70172 21.5177 2.70902 20.9242 2.71247C20.6275 2.71397 20.3235 2.71497 20.0814 2.71347C19.8393 2.71197 19.6046 2.69972 19.6468 2.70467C19.5816 2.69691 19.5154 2.7021 19.4521 2.71994C19.3888 2.73779 19.3297 2.76793 19.2781 2.80866C19.2265 2.84939 19.1834 2.8999 19.1513 2.95729C19.1193 3.01469 19.0988 3.07784 19.0912 3.14315C19.0834 3.20843 19.0886 3.27461 19.1065 3.33789C19.1243 3.40117 19.1544 3.46031 19.1952 3.51192C19.2359 3.56353 19.2864 3.60661 19.3438 3.63867C19.4012 3.67074 19.4644 3.69118 19.5297 3.69881C19.69 3.71761 19.8268 3.71216 20.0756 3.71346C20.2903 3.71496 20.5492 3.71496 20.808 3.71346L14.6781 9.43514L13.0043 6.9244C12.8383 6.67526 12.492 6.62684 12.264 6.82088L2.26405 15.3209C2.05361 15.4999 2.02825 15.8156 2.20741 16.026C2.38642 16.2364 2.70217 16.2618 2.91248 16.0826L12.4838 7.94686L14.1722 10.4791C14.3435 10.7354 14.7036 10.7772 14.9291 10.567L21.5883 4.35211V5.70172C21.5883 5.83433 21.6409 5.9615 21.7347 6.05527C21.8285 6.14904 21.9556 6.20172 22.0883 6.20172C22.2209 6.20172 22.348 6.14904 22.4418 6.05527C22.5356 5.9615 22.5883 5.83433 22.5883 5.70172V3.20172C22.5883 3.13557 22.5751 3.07007 22.5496 3.00902C22.5241 2.94798 22.4868 2.89261 22.4397 2.8461C22.3927 2.7996 22.3369 2.76288 22.2755 2.7381C22.2142 2.71332 22.1485 2.70096 22.0824 2.70172Z" fill="#808B9B"/>
<path fill-rule="evenodd" clip-rule="evenodd" d="M5.08826 2.22327C5.01963 2.22328 4.95168 2.23567 4.88828 2.25972C4.82489 2.28377 4.76729 2.31903 4.71877 2.36346C4.67026 2.4079 4.63178 2.46064 4.60553 2.51869C4.57928 2.57674 4.56578 2.63896 4.5658 2.70178V3.48401C3.73567 3.68807 3.10876 4.36428 3.10876 5.17639C3.10876 6.15186 4.0132 6.93127 5.08826 6.93127C5.62218 6.93127 6.02283 7.29536 6.02283 7.73108C6.02283 8.1668 5.62218 8.53088 5.08826 8.53088C4.55434 8.53088 4.15467 8.1668 4.15466 7.73108C4.15441 7.60421 4.09912 7.48264 4.00096 7.39308C3.9028 7.30353 3.76981 7.25333 3.63123 7.25354C3.49281 7.25357 3.36007 7.30386 3.26212 7.39339C3.16417 7.48292 3.10901 7.60437 3.10876 7.73108C3.10876 8.54318 3.73567 9.2194 4.5658 9.42346V10.2057C4.56578 10.2685 4.57928 10.3307 4.60553 10.3888C4.63178 10.4468 4.67026 10.4996 4.71877 10.544C4.76729 10.5884 4.82489 10.6237 4.88828 10.6478C4.95168 10.6718 5.01963 10.6842 5.08826 10.6842C5.15688 10.6842 5.22483 10.6718 5.28823 10.6478C5.35163 10.6237 5.40923 10.5884 5.45774 10.544C5.50626 10.4996 5.54474 10.4468 5.57098 10.3888C5.59723 10.3307 5.61073 10.2685 5.61072 10.2057V9.42346C6.44067 9.21912 7.06774 8.54288 7.06774 7.73108C7.06774 6.75561 6.16332 5.97522 5.08826 5.97522C4.55433 5.97522 4.15466 5.61212 4.15466 5.17639C4.15466 4.74067 4.55433 4.37658 5.08826 4.37659C5.62218 4.37659 6.02283 4.74067 6.02283 5.17639C6.02308 5.30295 6.07809 5.42426 6.17583 5.51376C6.27357 5.60327 6.40607 5.65367 6.54431 5.65393C6.68289 5.65414 6.81589 5.60394 6.91405 5.51439C7.01221 5.42483 7.06749 5.30326 7.06774 5.17639C7.06774 4.36458 6.44067 3.68835 5.61072 3.48401V2.70178C5.61073 2.63896 5.59723 2.57674 5.57098 2.51869C5.54474 2.46064 5.50626 2.4079 5.45774 2.36346C5.40923 2.31903 5.35163 2.28377 5.28823 2.25972C5.22483 2.23567 5.15688 2.22328 5.08826 2.22327Z" fill="#808B9B"/>
<path fill-rule="evenodd" clip-rule="evenodd" d="M7.58569 16.2018H9.58569V22.2018H7.58569C7.58569 20.2018 7.58569 18.2018 7.58569 16.2018Z" fill="#FCCA3D"/>
<path fill-rule="evenodd" clip-rule="evenodd" d="M11.5857 13.7573H13.5857V22.2018H11.5857C11.5857 19.387 11.5857 16.5721 11.5857 13.7573Z" fill="#E7E7E7"/>
<path fill-rule="evenodd" clip-rule="evenodd" d="M15.5857 12.2018H17.5857V22.2018H15.5857C15.5857 18.8685 15.5857 15.5351 15.5857 12.2018Z" fill="#E7E7E7"/>
<path fill-rule="evenodd" clip-rule="evenodd" d="M19.5857 9.20178H21.5857V22.2018H19.5857C19.5857 17.8684 19.5857 13.5351 19.5857 9.20178Z" fill="#E7E7E7"/>
</svg>
