<svg width="25" height="25" viewBox="0 0 25 25" fill="none" xmlns="http://www.w3.org/2000/svg">
<g clip-path="url(#clip0_275_38)">
<path d="M8.43665 1.22453C8.43665 1.02203 8.54915 0.947026 8.76477 0.947026C8.9804 0.947026 15.8166 0.920776 15.931 0.920776C16.0435 0.920776 16.171 1.03328 16.1579 1.18515C16.1448 1.33703 16.171 3.47828 16.1579 3.59078C16.1448 3.70328 16.0829 3.83078 15.9179 3.84203C15.7548 3.85515 8.8529 3.87953 8.71415 3.87953C8.5754 3.87953 8.4629 3.7164 8.44977 3.56453C8.43665 3.41265 8.43665 1.35015 8.43665 1.22453Z" fill="#546F7B"/>
<path d="M9.40601 3.72961H10.3004V4.71211H9.40601V3.72961Z" fill="#546F7B"/>
<path d="M14.3691 3.76892H15.2204V4.72142H14.3691V3.76892Z" fill="#546F7B"/>
<path d="M9.1792 1.48901H15.4886V3.18964H9.1792V1.48901Z" fill="#C9C8C7"/>
<path d="M17.6804 5.31769C17.6804 5.31769 17.7048 2.14331 17.7048 2.01769C17.7048 1.89206 17.806 1.77769 17.9823 1.82831C18.1585 1.87894 18.4604 2.04206 18.9892 2.20706C19.5179 2.37206 20.1085 2.57269 20.1629 2.64394C20.2492 2.75831 19.7954 3.06394 19.1392 3.41644C18.5429 3.73706 18.2448 3.93206 18.2448 3.93206L18.2073 5.51831L17.7535 5.68144L17.6804 5.31769Z" fill="#2385F8"/>
<path d="M20.8547 6.94147V3.83084C20.8547 3.66772 21.0441 3.57959 21.1829 3.61709C21.3216 3.65459 21.586 3.81772 22.051 4.00709C22.4579 4.17209 23.1947 4.36522 23.1854 4.49834C23.1704 4.68772 22.5741 4.93147 22.2272 5.15459C21.8747 5.38147 21.346 5.63272 21.346 5.63272V7.59772L20.8547 6.94147Z" fill="#4BC5FC"/>
<path d="M7.03979 5.15078V1.78515C7.03979 1.62015 6.81853 1.61265 6.64603 1.64265C6.46041 1.6764 6.18103 1.8939 5.74228 1.9914C5.30353 2.0889 4.67916 2.1489 4.58541 2.31015C4.52916 2.40765 4.87041 2.83703 5.35228 3.07703C5.83416 3.31703 6.56916 3.68078 6.56916 3.68078V5.3139L7.03979 5.15078Z" fill="#2385F8"/>
<path d="M3.88411 6.44462C3.88411 6.44462 3.87286 3.67149 3.87286 3.61712C3.87286 3.56274 3.74161 3.47462 3.54474 3.55149C3.34786 3.62837 1.52349 4.21149 1.49536 4.34087C1.44474 4.58087 2.45724 4.93899 2.69911 5.04774C2.94099 5.15649 3.40224 5.37024 3.40224 5.37024V6.92649L3.88411 6.44462Z" fill="#4BC5FC"/>
<path d="M1.24793 10.3295C1.10918 9.08266 2.59793 4.13453 12.1829 4.23578C22.3361 4.34453 23.2379 9.67703 23.1836 10.2995C23.1461 10.7327 23.0673 14.822 23.0673 14.822C23.0673 14.822 12.2636 18.2064 12.2636 18.0977C12.2636 17.9889 2.5173 14.9027 2.5173 14.9027C2.5173 14.9027 1.35293 11.2727 1.24793 10.3295Z" fill="#EE3E23"/>
<path d="M12.016 4.2358C12.016 4.2358 12.1323 4.23205 12.2954 4.2358C12.4585 4.23955 12.5823 4.2433 12.5823 4.2433L12.5954 11.2877L12.0141 11.2745C12.0123 11.2764 12.0366 4.25642 12.016 4.2358Z" fill="#AE111F"/>
<path d="M19.201 5.54834L15.7303 11.7152L16.2085 11.8952L19.6753 5.77896L19.201 5.54834Z" fill="#AE111F"/>
<path d="M23.2079 10.384L18.9216 13.534L19.051 13.999L23.1704 11.0158C23.1685 11.0177 23.2323 10.2171 23.2079 10.384Z" fill="#AE111F"/>
<path d="M5.13855 5.45644L8.2548 11.9083L8.57917 11.4696L5.60167 5.25769L5.13855 5.45644Z" fill="#AE111F"/>
<path d="M1.30789 9.60205L5.77789 13.4571L5.51914 13.8321L1.24226 10.2171C1.24226 10.2171 1.24039 10.0371 1.25539 9.90018C1.27226 9.76143 1.30789 9.60205 1.30789 9.60205Z" fill="#AE111F"/>
<path d="M5.03166 14.9196C5.03166 14.9196 4.97729 14.3646 5.10479 13.8677C5.32229 13.0146 6.88229 10.5659 12.3798 10.6559C17.8398 10.7459 19.4373 13.0146 19.4542 14.194C19.4729 15.3734 18.8185 15.3546 18.8185 15.3546L11.9073 17.1134L8.38229 15.9884L5.03166 14.9196Z" fill="#B7D016"/>
<path d="M16.3772 12.9771C16.3772 12.8215 16.2516 12.6978 16.096 12.6978H8.386C8.23037 12.6978 8.10475 12.8234 8.10475 12.979L8.09912 15.9903L8.66162 15.9921L8.66725 13.2621H12.0085V16.3559H12.3835V13.2621H15.8166L15.8335 15.9584L16.396 15.9546L16.3772 12.9771Z" fill="white"/>
<path d="M1.28351 9.69398C1.28351 9.69398 1.10351 10.084 1.11476 10.9277C1.12039 11.2709 1.11476 17.0646 1.11476 17.0646L2.79664 19.6315L5.73851 21.6977L10.3604 23.0984H13.9998L17.2904 22.609L21.001 20.2634L23.311 17.4621C23.311 17.4621 23.3054 10.714 23.2979 10.6109C23.2379 9.78773 23.0748 9.56836 23.0748 9.56836C23.0748 9.56836 23.9054 12.3284 19.5123 14.5577C17.8454 15.4034 15.2148 16.0802 12.1866 16.0465C7.71664 15.9977 5.03351 14.6102 3.76226 13.5809C1.04539 11.3796 1.28351 9.69398 1.28351 9.69398Z" fill="#B0B0B0"/>
<path d="M1.12608 17.8015C1.12608 17.8015 2.10483 20.104 5.17796 21.8383C6.85046 22.7815 9.16608 23.6102 12.2242 23.6871C14.9861 23.7565 17.6936 22.954 19.3361 21.9546C22.3717 20.1058 23.3673 17.7115 23.3673 17.7115L23.358 16.5433C23.358 16.5433 20.9655 22.6633 12.3123 22.7365C9.41358 22.7608 6.98171 21.9696 5.20983 20.8671C2.40671 19.1215 1.11108 16.7477 1.11108 16.7477L1.12608 17.8015Z" fill="#858585"/>
<path d="M1.14666 12.2964C1.14666 12.2964 3.10603 17.2183 12.2148 17.2783C20.8735 17.3346 23.3204 12.6864 23.3204 12.6864L23.3054 11.6777C23.3054 11.6777 21.1173 16.8077 12.2354 16.7346C2.91478 16.6596 1.11853 11.2164 1.11853 11.2164L1.14666 12.2964Z" fill="#858585"/>
<path d="M5.75167 22.1552C5.69167 22.0614 5.79667 17.6233 5.79667 17.4264C5.79667 17.1471 6.0273 16.6371 6.7323 16.8677C7.3923 17.0833 7.53855 17.7152 7.53855 18.0789C7.53855 18.4427 7.5723 22.4852 7.5723 22.5846C7.5723 22.6839 7.60042 22.9127 7.42417 22.8658C7.34542 22.8433 6.84292 22.7027 6.5148 22.5583C6.30292 22.4608 5.81167 22.2471 5.75167 22.1552Z" fill="#2F2F2F"/>
<path d="M2.24733 19.4908C2.22296 19.3933 2.23046 15.8177 2.23046 15.5852C2.23046 15.1239 2.63171 14.7714 3.10608 15.0508C3.58046 15.3302 3.82233 15.8402 3.83546 16.5208C3.84671 17.2014 3.85233 20.6927 3.86358 20.7902C3.87483 20.8877 3.81671 20.9552 3.70608 20.8745C3.67421 20.852 3.06108 20.4002 2.80608 20.1452C2.55108 19.892 2.24733 19.4908 2.24733 19.4908Z" fill="#2F2F2F"/>
<path d="M16.9416 23.0103C16.8216 22.924 16.8685 18.6415 16.8685 18.349C16.8685 18.0565 16.9548 17.1303 17.8173 16.9765C18.766 16.8059 18.6685 17.8034 18.6798 18.1315C18.691 18.424 18.7379 22.1984 18.7079 22.294C18.6929 22.3428 18.2635 22.5396 17.8398 22.7178C17.4873 22.864 16.9679 23.0271 16.9416 23.0103Z" fill="#2F2F2F"/>
<path d="M20.6223 21.0546C20.538 21.0396 20.6092 16.9558 20.6261 16.5321C20.6448 16.0952 20.8417 15.3171 21.4605 15.0902C22.0567 14.8708 22.2405 15.2252 22.2405 15.7971C22.2405 16.1496 22.2011 19.4589 22.1898 19.5433C22.1823 19.5958 21.9292 19.8677 21.588 20.2183C21.228 20.5896 20.6636 21.0621 20.6223 21.0546Z" fill="#2F2F2F"/>
<path d="M2.81355 9.08272C2.80042 9.21585 3.45855 9.78772 3.53917 9.78022C3.6198 9.77272 4.10167 9.2571 4.10167 9.15022C4.10167 9.04335 3.44167 8.46022 3.39855 8.46772C3.2973 8.48647 2.82105 8.99272 2.81355 9.08272Z" fill="#FF7879"/>
<path d="M5.80412 10.0652C5.80974 10.1665 6.23162 10.9483 6.38912 10.9427C6.58599 10.9352 7.10912 10.5265 7.09787 10.4308C7.08662 10.3352 6.64224 9.6096 6.50724 9.59272C6.37412 9.57772 5.79849 9.9546 5.80412 10.0652Z" fill="#FF7879"/>
<path d="M3.76228 6.97712C3.76603 7.04837 4.23291 7.73087 4.31728 7.72337C4.40166 7.71587 4.92291 7.35025 4.93416 7.25275C4.94541 7.14212 4.50853 6.51587 4.40166 6.4915C4.29478 6.46712 3.75478 6.84025 3.76228 6.97712Z" fill="#FF7879"/>
<path d="M7.31354 7.47016C7.30791 7.52454 7.68666 8.43579 7.80104 8.42829C7.96041 8.41704 8.50604 8.22579 8.52104 8.12829C8.53604 8.02891 8.16666 7.12141 8.09916 7.11391C8.03166 7.10641 7.32104 7.39516 7.31354 7.47016Z" fill="#FF7879"/>
<path d="M8.68975 6.034C8.66538 6.13525 8.86975 6.67525 8.9185 6.77087C8.9785 6.89275 9.08538 6.97712 9.29163 6.92275C9.44725 6.8815 9.79413 6.75587 9.80913 6.6265C9.82413 6.49712 9.52788 5.79025 9.436 5.74337C9.34413 5.6965 8.71975 5.91212 8.68975 6.034Z" fill="#FF7879"/>
<path d="M10.4241 6.67333C10.4935 6.71646 11.2435 6.65271 11.2679 6.59646C11.3279 6.45958 11.2454 5.62333 11.161 5.56146C11.0766 5.50146 10.3529 5.55958 10.3173 5.63083C10.2104 5.84271 10.3023 6.59646 10.4241 6.67333Z" fill="#FF7879"/>
<path d="M9.48103 8.98525C9.38915 9.0715 9.6854 9.92462 9.80165 9.98087C9.93665 10.0465 10.5629 9.81587 10.6004 9.73712C10.6454 9.63587 10.3398 8.80337 10.2535 8.77712C10.0848 8.72837 9.59353 8.88212 9.48103 8.98525Z" fill="#FF7879"/>
<path d="M13.4203 6.25899C13.2497 6.39024 13.2497 7.29774 13.3341 7.44587C13.4035 7.56774 14.1047 7.58462 14.2078 7.48899C14.266 7.43462 14.356 6.42399 14.2941 6.32837C14.2341 6.23274 13.5328 6.17087 13.4203 6.25899Z" fill="#FF7879"/>
<path d="M15.1679 5.34016C15.0648 5.44329 14.9429 6.43891 15.0123 6.51766C15.1173 6.63579 15.7661 6.70891 15.8692 6.64704C15.9723 6.58704 16.1729 5.59891 16.1204 5.45266C16.0698 5.30641 15.2861 5.22391 15.1679 5.34016Z" fill="#FF7879"/>
<path d="M15.3329 9.09959C15.2035 9.14271 14.8622 10.1721 14.8829 10.2602C14.9354 10.4852 15.6272 10.6671 15.766 10.5883C15.8466 10.5433 16.1991 9.53271 16.1822 9.44459C16.1635 9.36021 15.4697 9.05459 15.3329 9.09959Z" fill="#FF7879"/>
<path d="M20.086 7.37456C19.8873 7.40643 19.3848 8.22393 19.3848 8.35331C19.3848 8.48268 19.921 8.84643 20.026 8.82956C20.1291 8.81268 20.7366 7.87706 20.7366 7.80768C20.7366 7.73831 20.251 7.34831 20.086 7.37456Z" fill="#FF7879"/>
<path d="M20.1048 10.4402C19.9492 10.4402 19.1954 11.2014 19.1954 11.3139C19.1954 11.4264 19.6286 11.8427 19.7748 11.8596C19.9211 11.8764 20.6917 11.0889 20.7011 10.9502C20.7104 10.8133 20.2604 10.4402 20.1048 10.4402Z" fill="#FF7879"/>
<path d="M9.92166 23.4902C9.84478 23.4133 9.93103 20.3646 9.94416 19.8621C9.95916 19.2527 10.3867 17.6533 12.2729 17.6233C14.161 17.5933 14.7085 19.3296 14.7085 19.8921C14.7085 20.4546 14.7404 23.4339 14.671 23.5258C14.641 23.5671 13.6885 23.7321 12.226 23.7171C10.8385 23.7021 9.99853 23.5652 9.92166 23.4902Z" fill="#2F2F2F"/>
</g>
<defs>
<clipPath id="clip0_275_38">
<rect width="24" height="24" fill="white" transform="translate(0.27478 0.230835)"/>
</clipPath>
</defs>
</svg>
