<svg width="29" height="29" viewBox="0 0 29 29" fill="none" xmlns="http://www.w3.org/2000/svg">
<g clip-path="url(#clip0_45_1289)">
<path d="M5.92842 6.86583C5.66937 6.92646 5.83472 6.91544 5.61976 6.94299C4.69931 7.14142 5.38276 7.31779 5.92842 6.86583ZM22.1162 7.23511C22.1824 7.19102 22.4139 6.96504 21.6918 6.74457C21.7359 6.97055 21.543 6.94851 21.543 7.07527C22.0777 7.5603 22.2981 8.40359 22.9816 8.57996C23.1139 7.97368 22.3753 7.67605 22.1162 7.23511ZM5.43788 6.68946C5.52055 7.18 5.88983 6.17136 5.89534 5.8131C5.75204 5.89577 5.60874 5.97845 5.45992 6.04459C5.80716 6.22096 5.50402 6.40836 5.12922 6.68946C4.36861 7.63747 5.84023 5.95089 5.43788 6.68946ZM14.8684 0.549438C7.07485 0.549438 0.758453 6.86583 0.758453 14.6594C0.758453 22.4474 7.07485 28.7693 14.8684 28.7693C22.6619 28.7693 28.9783 22.4474 28.9783 14.6594C28.9783 6.86583 22.6619 0.549438 14.8684 0.549438ZM15.2432 5.27847L15.3093 5.30051C15.0447 5.64224 16.6872 6.63985 15.5077 6.72253C14.4054 7.03669 15.9707 6.43592 15.1164 6.54064C15.5684 5.91231 14.7581 5.90129 15.2432 5.27847ZM8.55198 6.18238C8.15514 5.85168 6.9095 6.63434 7.34492 6.44694C8.42521 6.02254 7.41657 6.49104 7.67011 6.99811C7.43862 7.47763 7.59294 6.52411 7.01973 7.09181C6.60635 7.18551 5.5922 8.1225 5.71897 7.83589C5.6859 8.28233 4.51191 8.81146 4.35207 9.55553C3.96625 10.5862 4.25837 9.51695 4.18672 9.1146C3.63555 8.41461 2.63243 10.2996 2.93006 11.0437C3.43162 10.1618 3.39304 10.95 3.02927 11.3413C3.39855 12.0193 2.69306 12.9011 3.39304 13.4027C3.70169 13.4743 4.319 12.3665 4.04893 13.5184C4.23633 12.5208 4.56703 13.7554 5.10166 13.4799C5.13473 14.0035 5.45992 13.761 5.53157 14.3948C6.42447 14.3287 7.2402 15.8389 6.17644 16.1255C6.33628 16.0814 6.65045 16.3625 7.01422 16.1475C7.63153 16.6381 9.25747 16.6987 9.30157 17.9112C8.18269 18.4459 9.02598 19.912 8.05593 20.4356C6.94256 20.2703 7.67562 21.808 7.20713 21.6316C7.39452 22.7395 6.08274 21.4883 6.58982 22.1001C7.52129 22.6733 6.18195 22.5576 6.60084 22.9765C6.13235 22.8773 6.89296 23.8473 7.01973 24.2056C7.69215 25.2969 6.441 23.9631 6.07172 23.5993C5.71897 22.8938 4.88671 21.5435 4.65522 20.4356C4.52293 18.8262 3.27729 17.7459 2.99069 16.1751C2.70408 15.2987 3.77886 13.8932 3.20013 13.4027C2.69857 13.0114 2.9025 11.672 2.60487 10.9665C3.34895 7.74219 5.71346 5.02493 8.55198 3.41552C8.25986 3.63047 10.222 2.85883 9.99604 3.04623C9.93541 3.18402 11.1425 2.52262 11.87 2.42341C11.7928 2.43444 9.9795 3.08481 10.4811 2.99663C9.70392 3.37693 10.4039 3.16198 10.7897 2.96907C10.0181 3.53677 9.42282 3.37693 8.54647 3.8785C7.6646 4.10999 7.84648 5.02493 7.21815 5.4824C7.58743 5.54854 8.5134 4.52888 9.05354 4.17062C10.2937 3.56984 8.42521 5.26193 9.60471 4.53439C9.20787 4.90367 9.29054 5.49342 9.04803 5.65877C8.92677 5.6257 9.52755 5.94538 8.55198 6.18238ZM10.4811 3.64701C10.3543 3.81787 10.1779 4.18715 10.0732 3.96117C9.9299 4.03282 9.87478 4.34148 9.60471 4.09345C9.76455 3.97771 9.9299 3.70212 9.61573 3.87299C9.75904 3.71866 11.0377 3.28323 10.9661 3.11788C11.1921 2.97458 11.17 2.90293 10.911 2.99112C10.7787 2.94702 11.2251 2.57223 11.8204 2.52262C11.9031 2.52262 11.9362 2.57774 11.7873 2.5612C10.8889 2.83679 11.2748 2.75962 11.881 2.5612C11.6495 2.69348 11.4897 2.73207 11.4511 2.79269C12.0574 2.57223 11.4181 2.95253 11.5558 2.92498C11.385 3.01316 11.5834 3.04072 11.2527 3.16749C11.3133 3.11788 10.7126 3.52575 11.0708 3.40449C10.7236 3.73519 10.5693 3.7407 10.4811 3.64701ZM11.0102 4.43518C11.0212 3.90606 11.7818 3.56984 11.6881 3.54228C12.6251 3.10135 11.3629 3.55882 12.1015 3.16198C12.3771 3.13442 12.9613 2.25255 13.7715 2.19743C14.6644 1.92736 14.2511 2.21397 14.9125 1.96043L14.7802 2.07066C14.6644 2.0872 14.8077 2.29113 14.3889 2.59979C14.3448 3.0793 13.5897 2.85883 13.9645 3.37142C13.7219 3.02419 13.3582 3.3604 13.8156 3.39347C13.3251 3.76826 12.1842 3.8344 11.6385 4.45722C11.2858 4.9643 10.9606 4.80446 11.0102 4.43518ZM14.929 6.19892C14.5542 7.10283 14.1904 6.06664 14.8518 5.90129C15.0172 5.98947 15.0833 6.01703 14.929 6.19892ZM13.518 4.39108C13.4078 3.98322 13.496 4.19817 14.1519 4.00527C14.6038 4.33046 13.7495 4.54541 13.518 4.39108ZM23.7808 20.5679C23.2627 19.675 24.4091 18.8482 24.7949 18.0986C24.7453 18.975 24.6351 19.8403 23.7808 20.5679ZM25.7319 10.3658C25.1697 10.4098 24.6626 10.5421 24.1556 10.2224C22.9871 8.94374 24.3705 11.6665 24.7563 10.5531C26.1453 11.0823 24.7343 13.3641 23.8579 13.1271C23.3674 12.0689 22.7611 10.9059 21.6918 10.3878C22.5131 11.2972 22.9209 12.4161 23.8028 13.2373C23.8634 14.3838 25.0264 12.8185 24.9548 13.7058C25.065 15.2326 23.2296 16.1475 23.5493 17.6798C24.2327 19.0742 22.232 19.3278 22.458 20.5789C21.6533 21.4773 20.7934 22.6899 19.3494 22.497C19.3494 21.7364 18.9636 21.0915 18.8754 20.3088C18.0927 19.3167 19.7021 18.253 18.7045 17.2168C17.5526 16.9577 18.9415 15.3704 17.7565 15.5192C17.0455 14.8082 16.0038 15.4971 14.9841 15.5026C13.7054 15.6239 12.3881 13.9318 12.9558 12.7358C12.5039 11.4901 14.3889 11.1264 14.4385 10.0295C15.3424 9.27444 16.6266 9.36814 17.8502 9.19176C17.762 10.0681 18.688 10.0736 19.388 10.3658C19.7793 9.41774 20.9974 10.5201 21.8296 9.9193C22.1162 8.51934 21.0194 9.36263 20.3911 8.91618C19.6305 7.80282 22.017 8.34296 21.769 7.75872C20.843 7.75321 21.3666 6.61781 20.7108 7.25165C21.3005 7.35637 20.606 7.81935 20.6226 7.29023C19.7297 7.03118 20.5895 8.30438 20.1375 8.42564C19.4486 8.13903 19.7738 8.75083 19.8454 8.84453C19.5478 9.48939 19.184 7.89652 18.3407 7.94061C17.503 7.17449 18.01 8.28785 18.7376 8.46973C18.5832 8.51382 18.8258 9.14767 18.6329 8.8776C18.0321 8.05084 16.8912 7.49967 16.2132 8.51382C16.1416 9.46183 14.2125 9.73191 14.5211 8.62406C14.0692 7.47763 15.9211 8.59099 15.7502 7.67605C14.5597 6.88788 16.0754 7.14142 16.4778 6.40285C17.3927 6.43041 16.5164 5.65326 16.9463 5.42728C16.9022 6.27057 17.6463 6.11073 18.236 5.95089C18.0927 5.46586 18.5888 5.4824 18.2856 5.08004C19.6525 4.53439 17.2439 5.33358 17.7289 4.13755C17.1392 3.72968 17.4809 5.03595 17.7289 5.17374C17.7455 5.5761 17.4037 6.07215 16.9353 5.22886C16.2518 5.67531 16.3235 4.7769 16.2794 4.8706C16.2022 4.52336 16.7975 4.50683 16.803 3.90054C16.7534 3.51473 16.7644 3.31079 17.04 3.28875C17.062 3.34386 18.1699 3.3604 18.5612 3.81787C17.4919 3.60291 18.4014 3.99424 18.8809 4.21471C18.3683 3.81236 19.0848 4.21471 18.6659 3.75724C18.8313 3.79031 18.2085 3.12891 18.8478 3.70763C18.5006 3.29426 19.5257 3.41552 18.9195 3.10686C19.8068 3.35489 19.2832 3.12891 18.7596 2.90293C17.3156 2.04311 21.3115 4.06589 19.6801 3.16749C20.7218 3.39347 17.4534 2.36278 18.9415 2.81474C18.3738 2.56672 18.925 2.70451 19.4376 2.86435C18.5171 2.57774 17.1392 2.04311 17.1943 2.02106C17.514 2.04311 17.8281 2.11476 18.1313 2.20294C19.0738 2.48404 17.8612 2.1368 18.1203 2.14232C21.3611 2.97458 24.1997 5.14618 25.9248 7.9847C26.3272 8.4091 27.424 11.2146 26.8508 9.96891C27.1098 10.961 27.1484 12.0303 27.2862 13.0444C26.9996 12.7248 26.6799 11.5453 26.4043 10.8894C26.2886 11.1429 26.1563 10.5311 25.7319 10.3658Z" fill="#F4F4F4"/>
</g>
<defs>
<clipPath id="clip0_45_1289">
<rect width="28.2198" height="28.2198" fill="white" transform="translate(0.758453 0.549438)"/>
</clipPath>
</defs>
</svg>
